<svg xmlns="http://www.w3.org/2000/svg" viewBox="0 0 100 100">
  <path d="M 42.53,18.88 L 43.12,6.54 L 56.88,6.54 L 57.47,18.88 A 32 32 0 0 1 66.72,22.72 L 75.86,14.40 L 85.60,24.14 L 77.28,33.28 A 32 32 0 0 1 81.12,42.53 L 93.46,43.12 L 93.46,56.88 L 81.12,57.47 A 32 32 0 0 1 77.28,66.72 L 85.60,75.86 L 75.86,85.60 L 66.72,77.28 A 32 32 0 0 1 57.47,81.12 L 56.88,93.46 L 43.12,93.46 L 42.53,81.12 A 32 32 0 0 1 33.28,77.28 L 24.14,85.60 L 14.40,75.86 L 22.72,66.72 A 32 32 0 0 1 18.88,57.47 L 6.54,56.88 L 6.54,43.12 L 18.88,42.53 A 32 32 0 0 1 22.72,33.28 L 14.40,24.14 L 24.14,14.40 L 33.28,22.72 A 32 32 0 0 1 42.53,18.88 Z M 50.00,37.00 A 13 13 0 1 0 50.00,63.00 A 13 13 0 1 0 50.00,37.00 Z" fill="#0078d4" fill-rule="evenodd"/>
</svg>